<svg width="32" height="32" viewBox="0 0 32 32" fill="none" xmlns="http://www.w3.org/2000/svg">
<path fill-rule="evenodd" clip-rule="evenodd" d="M9 25L19.7857 25C20.338 25 20.7857 25.4477 20.7857 26C20.7857 26.5523 20.338 27 19.7857 27L8.00001 27C7.73479 27 7.48044 26.8946 7.29291 26.7071C7.10537 26.5196 7.00002 26.2652 7.00002 26L7.00002 6.00001C7.00002 5.44773 7.44773 5.00002 8.00001 5.00002L23 5.00002C23.5523 5.00002 24 5.44773 24 6.00001L24 23C24 23.5523 23.5523 24 23 24C22.4477 24 22 23.5523 22 23L22 7L9 7L9 25Z" fill="white"/>
<path fill-rule="evenodd" clip-rule="evenodd" d="M11 11C11 10.4477 11.4477 10 12 10H19C19.5523 10 20 10.4477 20 11C20 11.5523 19.5523 12 19 12H12C11.4477 12 11 11.5523 11 11Z" fill="white"/>
<path fill-rule="evenodd" clip-rule="evenodd" d="M11 17C11 16.4477 11.4477 16 12 16H19C19.5523 16 20 16.4477 20 17C20 17.5523 19.5523 18 19 18H12C11.4477 18 11 17.5523 11 17Z" fill="white"/>
<path fill-rule="evenodd" clip-rule="evenodd" d="M11 14C11 13.4477 11.4477 13 12 13H19C19.5523 13 20 13.4477 20 14C20 14.5523 19.5523 15 19 15H12C11.4477 15 11 14.5523 11 14Z" fill="white"/>
<path fill-rule="evenodd" clip-rule="evenodd" d="M11 20C11 19.4477 11.4477 19 12 19H19C19.5523 19 20 19.4477 20 20C20 20.5523 19.5523 21 19 21H12C11.4477 21 11 20.5523 11 20Z" fill="white"/>
<path fill-rule="evenodd" clip-rule="evenodd" d="M19.6173 26.9239C19.2436 26.7691 19 26.4044 19 26L19 23C19 22.4477 19.4477 22 20 22L23 22C23.4044 22 23.7691 22.2436 23.9239 22.6173C24.0786 22.991 23.9931 23.4211 23.7071 23.7071L20.7071 26.7071C20.4211 26.9931 19.991 27.0786 19.6173 26.9239Z" fill="white"/>
</svg>
