<svg width="32" height="32" viewBox="0 0 32 32" fill="none" xmlns="http://www.w3.org/2000/svg">
<path d="M28.7107 9.54357C28.7311 9.83073 28.7311 10.118 28.7311 10.4051C28.7311 19.1641 22.1321 29.2564 10.0711 29.2564C6.35534 29.2564 2.90357 28.1692 0 26.2821C0.52794 26.3436 1.0355 26.3641 1.58376 26.3641C4.64971 26.3641 7.47209 25.318 9.72591 23.5334C6.84265 23.4718 4.42639 21.5641 3.59389 18.9385C4.00002 19 4.40608 19.041 4.83252 19.041C5.42133 19.041 6.01021 18.9589 6.5584 18.8154C3.55333 18.2 1.29944 15.5333 1.29944 12.3128V12.2308C2.17251 12.7231 3.18783 13.0308 4.26389 13.0718C2.49738 11.882 1.34007 9.85125 1.34007 7.5538C1.34007 6.32305 1.66488 5.19485 2.23345 4.21023C5.4619 8.23074 10.3147 10.8563 15.7563 11.1436C15.6548 10.6513 15.5939 10.1385 15.5939 9.62565C15.5939 5.97433 18.5178 3 22.1523 3C24.0406 3 25.7462 3.8 26.9442 5.09231C28.4264 4.80514 29.8477 4.25127 31.1066 3.49231C30.6192 5.03081 29.5837 6.32312 28.2234 7.14357C29.5432 7.00005 30.8224 6.63074 32 6.11797C31.1067 7.43074 29.9899 8.59992 28.7107 9.54357Z" fill="white"/>
</svg>
