<?xml version="1.0" encoding="utf-8"?>
<!-- Generator: Adobe Illustrator 25.4.1, SVG Export Plug-In . SVG Version: 6.00 Build 0)  -->
<svg version="1.1" id="Camada_1" xmlns="http://www.w3.org/2000/svg" xmlns:xlink="http://www.w3.org/1999/xlink" x="0px" y="0px"
	 viewBox="0 0 79.3 54.2" style="enable-background:new 0 0 79.3 54.2;" xml:space="preserve">
<style type="text/css">
	.st0{fill-rule:evenodd;clip-rule:evenodd;fill:#FFFFFF;}
</style>
<g>
	<polygon class="st0" points="32,54 34.4,54 34.4,40.9 32,40.9 	"/>
	<polygon class="st0" points="41.8,54 36.6,40.9 39.3,40.9 43.6,51.8 47.9,40.9 50.6,40.9 45.4,54 	"/>
	<polygon class="st0" points="54.2,40.9 49,54 51.7,54 56,43 60.3,54 63,54 57.8,40.9 	"/>
	<polygon class="st0" points="26.1,51 26.1,40.9 28.5,40.9 28.5,54 25.7,54 18.4,44.4 18.4,54 16,54 16,40.9 18.4,40.9 	"/>
	<polygon class="st0" points="65.3,40.9 67.9,40.9 67.9,52 74.4,52 74.4,54 65.3,54 	"/>
	<polygon class="st0" points="76.8,54 79.3,54 79.3,40.9 76.8,40.9 	"/>
	<polygon class="st0" points="12.5,47.9 12.5,48.2 12.5,48.5 12.5,48.8 12.4,49.1 12.4,49.4 12.3,49.7 12.2,50 12.1,50.3 11.9,50.6 
		11.8,50.9 11.6,51.1 11.5,51.4 11.3,51.6 11.1,51.9 10.9,52.1 10.7,52.3 10.5,52.5 10.3,52.7 10,52.9 9.8,53.1 9.5,53.3 9.3,53.4 
		9,53.5 8.7,53.7 8.4,53.8 8.1,53.9 7.8,54 7.5,54 7.2,54.1 6.9,54.1 6.6,54.2 6.2,54.2 5.9,54.2 5.6,54.1 5.3,54.1 5,54 4.7,54 
		4.4,53.9 4.1,53.8 3.8,53.7 3.5,53.5 3.3,53.4 3,53.3 2.8,53.1 2.5,52.9 2.3,52.7 2.1,52.5 1.8,52.3 1.6,52.1 1.4,51.9 1.2,51.6 
		1.1,51.4 0.9,51.1 0.8,50.9 0.6,50.6 0.5,50.3 0.4,50 0.3,49.7 0.2,49.4 0.1,49.1 0.1,48.8 0,48.5 0,48.2 0,47.9 0,40.9 2.6,40.9 
		2.6,47.9 2.6,48 2.6,48.2 2.6,48.4 2.6,48.6 2.7,48.8 2.7,49 2.8,49.1 2.9,49.3 2.9,49.5 3,49.6 3.1,49.8 3.2,49.9 3.3,50.1 
		3.4,50.2 3.5,50.4 3.7,50.5 3.8,50.6 3.9,50.7 4.1,50.9 4.2,51 4.4,51.1 4.5,51.1 4.7,51.2 4.8,51.3 5,51.4 5.2,51.4 5.4,51.5 
		5.5,51.5 5.7,51.6 5.9,51.6 6.1,51.6 6.2,51.6 6.4,51.6 6.6,51.6 6.8,51.6 7,51.5 7.2,51.5 7.4,51.4 7.5,51.4 7.7,51.3 7.8,51.2 
		8,51.1 8.2,51.1 8.3,51 8.5,50.9 8.6,50.7 8.8,50.6 8.9,50.5 9,50.4 9.1,50.2 9.2,50.1 9.4,49.9 9.4,49.8 9.5,49.6 9.6,49.5 
		9.7,49.3 9.8,49.1 9.8,49 9.9,48.8 9.9,48.6 9.9,48.4 10,48.2 10,48 10,47.9 10,40.9 12.5,40.9 	"/>
	<polygon class="st0" points="73.4,0 73.3,1.8 73.2,3.5 73,5.2 72.7,6.9 72.3,8.5 71.9,10.1 71.3,11.7 70.7,13.2 70.1,14.8 
		69.3,16.2 68.5,17.6 67.6,19 66.7,20.3 65.7,21.6 64.7,22.9 63.5,24 62.4,25.2 61.2,26.2 59.9,27.2 58.6,28.2 57.2,29.1 55.8,29.9 
		54.4,30.6 52.9,31.3 51.4,31.9 49.8,32.4 48.2,32.9 46.6,33.3 45,33.6 43.3,33.8 41.6,33.9 39.9,33.9 38.2,33.9 36.4,33.8 
		34.7,33.6 33,33.3 31.4,32.9 29.8,32.4 28.2,31.9 26.6,31.3 25.1,30.6 23.7,29.9 22.3,29.1 20.9,28.2 19.5,27.2 18.3,26.2 17,25.2 
		15.9,24 14.7,22.9 13.7,21.6 12.7,20.3 11.7,19 10.9,17.6 10,16.2 9.3,14.8 8.6,13.2 8,11.7 7.5,10.1 7,8.5 6.6,6.9 6.3,5.2 
		6.1,3.5 6,1.8 6,0 39.9,0 39.9,9.8 46.6,0 49.4,0 39.9,14.2 39.9,17.3 51.7,0 54.5,0 39.9,21.5 39.9,24.6 57,0 59.7,0 39.9,28.8 
		39.9,31.9 62,0 	"/>
</g>
</svg>
