<svg width="32" height="32" viewBox="0 0 32 32" fill="none" xmlns="http://www.w3.org/2000/svg">
<path d="M31.3313 8.48967C30.9633 7.11606 29.879 6.03424 28.5022 5.66712C26.0067 5 16 5 16 5C16 5 5.99337 5 3.49781 5.66712C2.12103 6.0343 1.0367 7.11606 0.668671 8.48967C0 10.9794 0 16.1741 0 16.1741C0 16.1741 0 21.3687 0.668671 23.8584C1.0367 25.232 2.12103 26.2688 3.49781 26.6359C5.99337 27.303 16 27.303 16 27.303C16 27.303 26.0066 27.303 28.5022 26.6359C29.879 26.2688 30.9633 25.232 31.3313 23.8584C32 21.3687 32 16.1741 32 16.1741C32 16.1741 32 10.9794 31.3313 8.48967V8.48967ZM12.7272 20.8904V11.4577L21.0909 16.1742L12.7272 20.8904V20.8904Z" fill="white"/>
</svg>
